<?xml version="1.0" standalone="no"?>
<!DOCTYPE svg PUBLIC "-//W3C//DTD SVG 20010904//EN"
 "http://www.w3.org/TR/2001/REC-SVG-20010904/DTD/svg10.dtd">
<svg version="1.0" xmlns="http://www.w3.org/2000/svg"
 width="512.000000pt" height="512.000000pt" viewBox="0 0 512.000000 512.000000"
 preserveAspectRatio="xMidYMid meet">
<metadata>
Created by potrace 1.14, written by Peter Selinger 2001-2017
</metadata>
<g transform="translate(0.000000,512.000000) scale(0.100000,-0.100000)"
fill="#000000" stroke="none">
<path d="M2685 5103 c-40 -12 -66 -31 -136 -101 -71 -72 -88 -96 -99 -137 -25
-89 -17 -128 48 -255 33 -63 71 -146 85 -185 53 -150 80 -371 52 -424 -16 -29
-192 -204 -275 -273 -30 -25 -102 -78 -159 -117 -81 -55 -107 -68 -118 -60 -7
6 -13 16 -13 22 0 11 -109 285 -141 351 -52 111 -175 170 -296 141 -13 -3 -31
-7 -41 -9 -9 -2 -37 -9 -62 -16 -25 -7 -49 -13 -55 -14 -91 -20 -160 -69 -198
-140 -20 -37 -22 -55 -22 -190 l0 -148 -108 -28 c-116 -29 -143 -46 -151 -96
-5 -26 0 -38 23 -63 34 -37 36 -37 146 -11 47 11 89 20 93 20 7 0 5 -156 -2
-176 -2 -6 -30 -17 -62 -24 -33 -8 -61 -14 -64 -15 -3 -1 -21 -5 -41 -9 -49
-10 -87 -44 -94 -84 -5 -27 0 -38 24 -63 35 -34 51 -35 151 -9 41 11 76 20 78
20 2 0 1 -33 -2 -72 -3 -40 -5 -83 -5 -95 -1 -20 -13 -29 -58 -38 -56 -11
-121 -30 -145 -41 -35 -18 -54 -74 -37 -106 27 -50 75 -60 162 -34 58 17 56
27 22 -159 -13 -72 -12 -71 -72 -85 -122 -27 -152 -40 -168 -69 -16 -32 -13
-62 9 -97 19 -28 54 -33 124 -17 48 10 52 10 48 -5 -3 -9 -10 -37 -16 -62 -7
-25 -30 -101 -53 -170 -22 -69 -41 -134 -42 -145 -1 -11 9 -35 23 -53 l24 -33
-20 -48 c-12 -26 -36 -76 -54 -111 -32 -62 -34 -64 -88 -76 -30 -7 -75 -16
-100 -19 -25 -4 -56 -8 -70 -11 -14 -2 -56 -6 -95 -9 -156 -12 -222 -24 -305
-57 -168 -66 -285 -193 -319 -348 -13 -57 -8 -255 9 -340 54 -282 202 -488
435 -603 99 -49 186 -77 288 -95 23 -4 924 -7 2002 -7 1877 0 1962 1 2015 18
154 52 277 172 332 324 17 46 22 89 26 204 5 165 -2 200 -51 251 l-32 33 0
890 c-1 878 -2 891 -22 935 -28 61 -73 107 -130 132 -40 18 -67 22 -158 22
-128 -1 -178 -17 -238 -79 -37 -38 -45 -56 -92 -205 -45 -143 -117 -273 -214
-390 -77 -92 -88 -100 -145 -101 -169 -5 -406 4 -426 16 -3 1 -30 6 -59 9 -30
4 -57 9 -60 12 -3 2 37 47 89 99 66 66 97 91 105 85 7 -6 27 -12 46 -14 33 -4
46 7 400 360 228 228 377 384 397 417 96 158 104 345 22 507 -39 78 -206 254
-265 281 -23 10 -56 16 -76 14 -35 -4 -45 6 -655 616 -441 442 -632 627 -666
644 -59 31 -138 38 -203 18z"/>
</g>
</svg>
